<?xml version="1.0" encoding="UTF-8" standalone="no"?>
<svg
   xmlns:dc="http://purl.org/dc/elements/1.1/"
   xmlns:cc="http://creativecommons.org/ns#"
   xmlns:rdf="http://www.w3.org/1999/02/22-rdf-syntax-ns#"
   xmlns:svg="http://www.w3.org/2000/svg"
   xmlns="http://www.w3.org/2000/svg"
   viewBox="0 0 283.4646 141.7323"
   id="svg2"
   height="141.7323"
   width="283.4646"
   version="1.1">
  <metadata
     id="metadata50">
    <rdf:RDF>
      <cc:Work
         rdf:about="">
        <dc:format>image/svg+xml</dc:format>
        <dc:type
           rdf:resource="http://purl.org/dc/dcmitype/StillImage" />
      </cc:Work>
    </rdf:RDF>
  </metadata>
  <defs
     id="defs48" />
  <path
     id="path4"
     style="fill:#1b1918;fill-rule:evenodd"
     d="m 11.3051,88.6382 6.4228,-36.4768 c 0.208,-1.1826 0.8005,-2.1931 1.7753,-3.022 0.9746,-0.8288 2.0582,-1.2432 3.2409,-1.2432 l 14.9281,0 c 4.1845,0 7.2252,0.8693 9.1326,2.6078 1.8805,1.8899 2.5302,4.4572 1.959,7.7015 -0.3611,2.0517 -1.1018,3.7902 -2.2203,5.2052 -1.1058,1.3442 -2.5172,2.4157 -4.233,3.204 1.8986,0.8691 3.2601,2.0923 4.0841,3.6689 0.7575,1.4959 0.9241,3.477 0.4936,5.9227 -0.694,3.9419 -2.5002,7.0246 -5.4168,9.2381 -2.9831,2.1325 -6.8388,3.1938 -11.5792,3.1938 l -18.5871,0 z m 12.4546,-24.9848 9.5916,0 c 2.0517,0 3.6201,-0.3538 4.6865,-1.0715 1.0746,-0.7075 1.7436,-1.8091 2.0087,-3.3151 0.2633,-1.4959 -0.0156,-2.6076 -0.8414,-3.3151 -0.676,-0.6367 -2.1574,-0.9502 -4.4518,-0.9502 l -9.4702,0 -1.5234,8.6519 z m -3.1053,17.6369 9.9453,0 c 2.2136,0 3.9881,-0.4346 5.3238,-1.3037 1.2404,-0.7886 2.033,-2.1328 2.3658,-4.0226 0.3327,-1.8902 0.0207,-3.2749 -0.9278,-4.144 -0.8924,-0.7883 -2.5512,-1.1826 -5.0074,-1.1826 l -9.8241,0 -1.8756,10.6529 z m 36.3591,-7.2165 -2.5645,14.5644 -8.4093,0 6.4228,-36.4768 c 0.2081,-1.1826 0.8005,-2.1931 1.7753,-3.022 0.9746,-0.8288 2.0583,-1.2432 3.2409,-1.2432 l 13.8569,0 c 4.346,0 7.3865,1.1018 9.1292,3.3151 1.8238,2.2136 2.3488,5.4884 1.5835,9.8345 -0.7226,4.1034 -2.3534,7.3378 -4.904,9.7129 -2.5223,2.2133 -5.7988,3.3151 -9.8215,3.3151 l -10.3093,0 z m 1.2937,-7.3479 8.1766,0 c 2.2136,0 3.8738,-0.4751 4.9912,-1.425 1.1739,-0.8694 1.9525,-2.3652 2.3281,-4.4978 0.3203,-1.8192 0.1018,-3.2748 -0.6545,-4.3764 -0.9343,-0.9501 -2.3165,-1.4252 -4.1255,-1.4252 l -8.6517,0 -2.0642,11.7244 z m 21.7174,9.2381 8.2979,0 c -0.1049,2.3751 0.513,4.0325 1.8416,4.9827 1.3825,1.1016 3.4577,1.6574 6.2272,1.6574 2.446,0 4.3821,-0.4345 5.7985,-1.3036 1.4165,-0.8694 2.2658,-2.1328 2.5574,-3.7902 0.4451,-2.5268 -2.7515,-4.5786 -9.5774,-6.1654 l -0.2129,-0.1111 c 0,0 -0.299,-0.0811 -0.9076,-0.2427 -3.8696,-0.8691 -6.3975,-1.779 -7.5764,-2.7189 -1.4239,-0.8691 -2.3029,-2.1325 -2.6462,-3.8002 -0.5391,-1.415 -0.6128,-3.2343 -0.2231,-5.4479 0.6815,-3.871 2.5614,-6.9131 5.6378,-9.1165 3.0538,-2.1328 7.1541,-3.204 12.2885,-3.204 4.8212,0 8.3364,1.1016 10.5545,3.3151 2.2476,2.4461 3.1102,5.6399 2.5662,9.5916 l -4.7301,0 c -1.8193,0 -2.9775,-0.8285 -3.4739,-2.4862 l 0,0 c -0.2551,-0.7884 -0.6936,-1.4553 -1.3034,-2.0112 -1.2455,-1.0211 -3.0849,-1.5364 -5.5309,-1.5364 -2.3752,0 -4.1497,0.4346 -5.3235,1.3039 -1.3357,0.8691 -2.1475,2.092 -2.425,3.6689 -0.3756,2.1325 1.631,3.7092 6.0281,4.7401 1.2751,0.3943 2.2227,0.6367 2.837,0.7075 1.3413,0.4751 2.5188,0.849 3.5302,1.1322 1.023,0.2727 1.8329,0.4952 2.433,0.6469 1.0179,0.4748 2.0463,0.9499 3.0642,1.4249 1.4196,0.9502 2.4271,2.1731 3.0331,3.6689 0.5772,1.6577 0.6914,3.477 0.3444,5.4479 -0.7509,4.265 -2.7598,7.5802 -6.0179,9.9556 -3.2301,2.2133 -7.4566,3.3151 -12.672,3.3151 -5.3669,0 -9.1885,-1.1421 -11.473,-3.4364 -2.5171,-2.2944 -3.4957,-5.6906 -2.9463,-10.188 z m 54.534,-28.0678 6.6405,0 7.6232,40.742 -8.8741,0 -1.2484,-8.4092 -15.8681,0 -4.0884,8.4092 -8.8841,0 20.1963,-38.0131 c 1.0279,-1.8193 2.5322,-2.7289 4.5031,-2.7289 z m 0.4624,8.1666 -8.7353,17.2933 11.3706,0 -2.6353,-17.2933 z" />
  <path
     id="path6"
     style="fill:#1b1918;fill-rule:evenodd"
     d="m 157.7035,117.7506 0,-90.8575 -2.1084,0 0,90.8575 2.1084,0 z" />
  <path
     id="path8"
     style="fill:#1b1918;fill-rule:evenodd"
     d="m 263.7777,76.0975 c 0.182,0.1942 0.335,0.4238 0.4529,0.6967 0.4885,1.1262 0.4122,2.2836 0.2339,3.4628 -0.1259,0.8292 -0.6038,1.4857 -1.2172,2.0277 -0.4955,0.4368 -1.0361,0.6831 -1.6356,0.9328 -0.0425,0.0179 -0.085,0.0352 -0.1278,0.0525 0.7061,0.7177 1.0777,1.7382 1.0607,2.7451 -0.0295,1.7325 -0.976,3.2329 -1.7218,4.7279 -0.5853,1.1721 -1.2543,2.3023 -2.0333,3.3567 -0.7466,1.0109 -1.6718,1.4579 -2.789,1.8995 -1.2206,0.4831 -2.243,1.1342 -3.5472,1.4843 -1.5239,0.4084 -3.0796,0.6162 -4.6412,0.8166 -2.4775,0.3181 -4.9428,0.6888 -7.4452,0.7472 -0.9649,0.0221 -1.4644,-0.269 -2.3204,-0.4765 -0.0536,-0.013 -0.1129,-0.026 -0.1679,-0.0292 -2.1872,-0.1326 -4.4248,-0.2976 -6.6129,-0.1292 -0.7946,0.0612 -1.7184,1.26 -2.2011,1.7997 -1.2433,1.3893 -2.014,3.1901 -3.1309,4.701 -0.3203,0.4328 -0.5975,0.9156 -0.8711,1.3787 -1.1369,1.9302 -2.279,3.6981 -4.5138,4.457 -0.8136,0.2761 -1.6651,0.2749 -2.4514,-0.0919 -0.8215,-0.3835 -1.334,-1.0309 -1.7901,-1.7543 -1.2691,0.9405 -2.5847,1.4998 -4.212,0.7724 -1.825,-0.8158 -2.3576,-2.3655 -2.7584,-4.165 -0.0519,-0.2327 -0.1585,-0.7832 -0.2716,-0.9853 l -0.001,-0.002 c -0.2273,-0.3991 -0.4065,-0.8198 -0.5845,-1.2427 -0.0139,-0.0329 -0.0292,-0.0701 -0.0456,-0.11 -0.3612,0.2199 -0.7518,0.5017 -0.9117,0.6148 -1.741,1.2308 -3.4259,2.2504 -5.6446,1.6206 -2.7643,-0.7846 -4.6171,-2.679 -6.529,-4.7038 -2.2748,-2.4086 -3.6956,-3.4073 -6.787,-4.6369 -1.8479,-0.7348 -3.7398,-1.4083 -5.6923,-1.8054 -0.106,0.0334 -0.2341,0.0901 -0.3206,0.1253 -0.7679,0.3098 -1.5131,0.5096 -2.2476,0.3812 -0.8869,0.3702 -1.7915,0.6338 -2.7652,0.2843 -0.4481,-0.1607 -0.8367,-0.4362 -1.1426,-0.8005 -0.2752,-0.3277 -0.5006,-0.6905 -0.6763,-1.0805 -0.5477,-1.2172 -0.5409,-2.501 -0.5092,-3.8044 0.0131,-0.5403 0.0383,-1.1245 -0.0317,-1.6605 -0.1848,-1.4194 -0.5888,-2.5892 -0.4005,-4.0695 0.3291,-2.5869 1.3884,-4.9402 1.809,-7.465 0.4499,-2.6992 0.3569,-5.4703 0.7986,-8.1865 0.4359,-2.6844 1.1919,-5.2897 1.8258,-7.929 0.0351,-0.1466 0.0773,-0.2801 0.1244,-0.4062 -0.0867,-0.0956 -0.1726,-0.1919 -0.2574,-0.2895 l -0.007,-0.0082 c -0.0187,-0.0212 -0.0371,-0.0428 -0.0553,-0.0646 l -0.0133,-0.0164 c -0.0348,-0.0437 -0.0674,-0.0879 -0.0986,-0.1338 -0.6545,-0.9301 -1.4806,-2.3953 -2.2916,-3.1428 -0.2131,-0.1965 -0.4419,-0.3563 -0.7004,-0.4879 -0.5471,-0.2789 -0.9998,-0.6559 -1.3955,-1.1228 -0.3708,-0.4379 -0.6627,-0.9785 -1.0389,-1.3818 -2.0415,-2.1703 -4.5765,-4.5692 -5.1497,-7.6235 -0.1973,-1.0545 -0.085,-3.176 0.5621,-4.0199 0.2441,-0.3186 0.1522,-0.2188 0.2886,-0.3503 0.5944,-0.8575 1.5795,-1.878 2.3304,-2.545 3.1969,-2.8272 7.3482,-4.5686 11.1055,-6.497 0.0661,-0.0354 0.1333,-0.0677 0.203,-0.0958 0.0516,-0.021 0.1032,-0.0394 0.1499,-0.0553 1.8383,-0.6457 3.7151,-1.2027 5.5205,-1.9369 1.207,-0.4912 2.3431,-1.1151 3.5822,-1.5403 3.0937,-1.0619 6.1012,-2.4639 9.299,-3.2003 1.7657,-0.4062 3.5827,-0.7983 5.3864,-0.9749 2.1725,-0.2143 4.2891,0.1761 6.4449,0.1446 1.5137,-0.0218 2.9483,-0.4045 4.5022,-0.3076 1.8961,0.1188 3.9416,0.5032 5.7711,1.0154 1.5789,0.4428 2.9959,1.2212 4.5374,1.7158 1.1081,0.3558 2.2445,0.6214 3.3851,0.845 1.4443,0.2824 2.8758,0.26 4.326,0.6568 1.8161,0.4952 3.8063,0.7121 5.5142,1.5364 1.4069,0.6775 2.5294,1.8023 3.7775,2.7099 1.1233,0.817 2.2467,1.6342 3.3698,2.4511 1.0559,0.7671 2.4333,2.5708 2.9996,3.7528 0.4232,0.8824 0.8731,2.1631 1.067,3.3571 1.383,0.2302 2.7657,0.4603 4.1485,0.6916 0.0329,0.0054 0.0655,0.0117 0.0978,0.0188 1.0854,0.1975 2.1705,0.3951 3.2561,0.5918 1.1764,0.1715 2.2918,0.1823 3.4521,0.5494 1.2121,0.3855 2.4451,0.644 3.6153,1.1616 0.9898,0.4363 2.2065,0.9522 3.0211,1.6574 0.6665,0.5772 1.5594,1.8349 1.8485,2.6649 0.385,1.1047 0.2024,2.1983 0.2648,3.3114 0.005,0.0581 0.008,0.1157 0.008,0.1741 0,0.055 -0.002,0.1097 -0.006,0.1644 -0.0592,1.1741 0.0649,2.2158 -0.2299,3.3982 -0.4107,1.6418 -0.4034,3.4092 -0.7376,5.085 -0.2746,1.3743 -0.4036,2.7624 -0.8328,4.1066 -1.1877,3.7168 -3.3647,7.6059 -6.2878,10.2262 l -0.2874,0.2583 z m -29.704,10.2844 c -0.002,5e-4 -0.004,0.0019 -0.006,0.0025 -0.5981,0.1066 -1.2249,0.2333 -1.8519,0.36 -1.535,0.3101 -3.0713,0.6208 -4.6395,0.7217 0.007,-6e-4 0.01,3e-4 -0.008,0.0014 l -0.0173,0 c -0.2489,0.0159 -0.523,0.0278 -0.8203,0.0366 -0.267,0.0076 -0.54,0.011 -0.8189,0.0099 -1.3987,-0.0057 -2.8055,-0.1304 -4.1902,-0.3648 -0.001,-3e-4 -0.002,-3e-4 -0.003,-6e-4 l 0,0 c -5e-4,0 -8e-4,0 -8e-4,-3e-4 -9e-4,0 -0.001,-2e-4 -0.001,-2e-4 -9e-4,0 -9e-4,0 -0.002,0 l -5e-4,-3e-4 -3e-4,0 c -3e-4,0 -3e-4,0 -3e-4,0 -8e-4,-3e-4 -8e-4,-3e-4 -8e-4,-3e-4 0,0 -3e-4,0 -3e-4,0 0,0 -3e-4,0 -3e-4,0 -3e-4,0 -3e-4,0 -3e-4,0 -0.1695,-0.0289 -0.3452,-0.0644 -0.5272,-0.1057 l -0.003,0 c -0.1871,-0.0426 -0.3623,-0.0876 -0.5255,-0.1341 -0.8836,-0.2512 -1.7411,-0.6222 -2.5444,-1.0684 l -6e-4,-6e-4 c -0.1871,-0.1037 -0.3716,-0.21 -0.5524,-0.3183 -0.2226,-0.1332 -0.406,-0.2463 -0.546,-0.337 l 6e-4,-0.0014 c -0.9326,-0.6033 -1.8122,-1.2909 -2.5906,-2.0691 -0.4062,-0.4059 -0.7543,-0.8674 -1.0605,-1.3575 -0.2902,-0.4648 -0.5436,-0.9629 -0.7727,-1.4649 -0.2137,-0.4666 -0.4136,-0.9576 -0.5482,-1.4706 -0.1434,-0.546 -0.2109,-1.1078 -0.1437,-1.6787 l 0,-0.0037 0,-0.0031 c 0.0181,-0.1511 0.0459,-0.3064 0.0816,-0.4643 0.0349,-0.1528 0.0774,-0.3025 0.1267,-0.4482 0.2529,-0.7449 0.6914,-1.4201 1.2444,-1.9732 l 0.001,-8e-4 0.002,0 c 0.1134,-0.1137 0.2316,-0.2223 0.3521,-0.326 0.123,-0.1052 0.2492,-0.2055 0.3773,-0.3002 0.6596,-0.4859 1.4116,-0.8566 2.1818,-1.0908 0.7455,-0.2267 1.5248,-0.3812 2.319,-0.4833 0.7929,-0.1017 1.5704,-0.1485 2.3273,-0.1613 1.1973,-0.0204 2.3768,0.146 3.5541,0.3121 0.3444,0.0488 0.6888,0.0973 1.1437,0.1534 1.3439,0.1652 2.7085,0.3696 4.0726,0.5743 0.4357,0.0652 0.8713,0.1304 1.3073,0.1944 l 0.006,9e-4 c 0.6139,0.0904 1.1999,0.195 1.7861,0.2993 1.0618,0.1891 2.1231,0.3782 3.2088,0.4573 0.5284,0.0385 1.0599,0.0303 1.5908,-0.0015 0.6055,-0.0362 1.1307,-0.091 1.6492,-0.1459 0.6194,-0.0658 1.2458,-0.1375 1.8958,-0.2353 0.6168,-0.0927 1.2288,-0.2072 1.8303,-0.36 0.7674,-0.1956 1.5285,-0.4156 2.2782,-0.6636 0.7575,-0.2506 1.4964,-0.527 2.2105,-0.8308 0.6182,-0.2637 1.237,-0.6316 1.8558,-0.9998 0.5726,-0.3408 1.1452,-0.6815 1.804,-0.9834 0.6347,-0.2908 1.2762,-0.5062 1.9174,-0.7214 0.602,-0.2021 1.2047,-0.4042 1.7594,-0.6576 0.9635,-0.4397 1.927,-1.0024 2.8882,-1.5639 0.2279,-0.1332 -0.212,0.1244 0.419,-0.2429 l 9e-4,-3e-4 c 0.4368,-0.254 0.8929,-0.5519 1.3484,-0.8498 0.6165,-0.4031 1.2333,-0.8062 1.8916,-1.1557 l 0.001,0 -3e-4,-9e-4 c 0.1304,-0.0694 0.2259,-0.1284 0.3234,-0.1888 0.5712,-0.3526 1.1775,-0.727 1.9409,-0.4728 l 0.002,9e-4 0.003,0.0028 c 0.1437,0.0485 0.2747,0.1185 0.3918,0.2058 0.1085,0.0808 0.2055,0.1755 0.29,0.2798 l 0.003,0.0031 c 0.3469,0.4289 0.5102,1.0939 0.4376,1.6248 0.6035,0.1372 1.4225,-0.127 2.0163,-0.5173 -1.0922,3.0206 -2.7198,5.565 -5.0258,7.8735 0,3e-4 0.001,6e-4 0.001,0.0011 -0.8555,0.7555 -2.1982,2.1586 -3.054,2.9141 l 2.2141,0.0294 1.9556,-1.7574 c 2.676,-2.3987 4.6798,-6.0259 5.762,-9.4136 0.3821,-1.1965 0.5329,-2.6643 0.7813,-3.9062 0.3333,-1.6704 0.3282,-3.4571 0.7568,-5.1712 0.2381,-0.9547 0.127,-2.086 0.1783,-3.0671 9e-4,-0.0159 0.003,-0.0315 0.003,-0.0473 0,-0.0139 -0.002,-0.0281 -0.003,-0.0423 -0.0451,-0.7724 0.0785,-2.1319 -0.1664,-2.8352 -0.1806,-0.5187 -0.9079,-1.525 -1.3127,-1.8754 -0.5976,-0.5173 -1.8258,-1.0414 -2.5574,-1.3637 -1.0409,-0.4604 -2.3361,-0.7436 -3.4291,-1.0914 -0.9814,-0.3104 -2.1719,-0.3356 -3.1918,-0.4881 -3e-4,-3e-4 0,0.0017 0,0.0017 -1.1152,-0.2024 -2.2303,-0.4051 -3.3452,-0.6083 -0.003,-6e-4 -0.006,-0.0026 -0.01,-0.0031 -1.5319,-0.256 -3.0643,-0.5108 -4.5964,-0.7659 -0.0127,-0.0023 -0.0252,-0.0051 -0.0383,-0.0066 -0.3543,-0.0428 -0.71,-0.0765 -1.0664,-0.1085 0.0414,-0.0584 0.0692,-0.1211 0.08,-0.1885 0.1672,-1.0523 -0.508,-3.0589 -0.961,-4.0037 -0.4209,-0.879 -1.6307,-2.4837 -2.4193,-3.0569 -1.1234,-0.8169 -2.2471,-1.6341 -3.3707,-2.4511 -1.04,-0.7566 -2.3576,-1.9933 -3.4923,-2.5401 -1.4017,-0.6764 -3.6632,-0.9995 -5.1987,-1.4179 -1.3317,-0.3645 -2.8307,-0.3594 -4.1939,-0.6262 -1.2126,-0.2375 -2.4196,-0.5213 -3.5957,-0.8991 -1.5004,-0.4816 -2.9696,-1.2748 -4.4708,-1.696 -1.6317,-0.4567 -3.6958,-0.8442 -5.3881,-0.9505 -1.3737,-0.0858 -2.9552,0.2909 -4.3597,0.3113 -2.0174,0.0295 -4.3129,-0.3484 -6.2909,-0.1534 -1.6671,0.1633 -3.5176,0.5604 -5.1526,0.9366 -2.9803,0.6866 -6.2107,2.1512 -9.1137,3.1473 -1.1528,0.3957 -2.3303,1.0338 -3.4857,1.5041 -1.8337,0.7461 -3.7361,1.3127 -5.6041,1.9689 -0.0224,0.008 -0.0456,0.015 -0.0678,0.0238 -0.0119,0.0048 -0.0229,0.0119 -0.0343,0.0176 -3.5016,1.798 -7.7638,3.6111 -10.7438,6.2467 -0.3722,0.3305 -1.6231,1.5647 -2.1254,2.3465 -0.0845,0.0842 -0.1681,0.1803 -0.2515,0.2889 -0.2574,0.3356 -0.3019,2.0798 -0.2129,2.5557 0.4785,2.55 3.0158,4.9289 4.6806,6.6983 0,0 0,3e-4 0,3e-4 0.7146,0.7659 0.9924,1.6472 1.9259,2.1231 1.6296,0.8306 2.258,2.2209 3.6725,4.2253 0.006,0.0091 0.0125,0.0184 0.0193,0.0272 0.0102,0.0125 0.021,0.0244 0.0318,0.0369 0.3418,0.394 0.7083,0.7687 1.0604,1.1548 -0.1738,0.3918 -0.4337,0.7949 -0.5267,1.1826 -0.6222,2.5929 -1.3711,5.1625 -1.7986,7.7945 -0.4402,2.7087 -0.3483,5.487 -0.7996,8.1938 -0.417,2.5021 -1.4786,4.8781 -1.7989,7.3947 -0.1519,1.1965 0.2438,2.401 0.4,3.5972 0.2435,1.8683 -0.4122,4.1533 0.7996,5.5956 0.5446,0.6486 1.5132,0.11 2.4398,-0.2874 0.8473,0.6176 1.9094,-0.5366 2.8245,-0.3581 2.1223,0.415 4.166,1.1347 6.1715,1.9318 3.4291,1.3635 4.993,2.4863 7.4478,5.0854 1.6693,1.7677 3.329,3.5246 5.6897,4.1947 1.5423,0.4377 2.7975,-0.4496 4.0734,-1.3516 0.8974,-0.6341 1.8076,-1.2775 2.6654,-1.2452 0.4241,0.0156 0.7517,0.7945 1.0624,1.5324 0.1551,0.3688 0.3073,0.7302 0.4867,1.0446 l 0.001,0.002 c 0.2239,0.3935 0.3475,0.9491 0.47,1.4987 0.2639,1.1849 0.5235,2.3499 1.709,2.88 1.0598,0.4737 1.862,-0.1664 2.6844,-0.8226 0.4606,-0.3674 0.9317,-0.743 1.2523,-0.6951 0.241,0.0363 0.5426,0.544 0.8308,1.0299 0.5809,0.9788 1.1322,1.9077 2.3375,1.4986 1.7096,-0.5805 2.6198,-2.1248 3.5155,-3.645 0.3184,-0.5395 0.6341,-1.0761 0.9774,-1.5398 1.1976,-1.62 1.8295,-3.2587 3.2394,-4.8342 0.9043,-1.0111 1.9069,-2.2924 3.4368,-2.41 2.2629,-0.1741 4.6043,-0.0099 6.8663,0.127 0.8025,0.0487 1.4953,0.5221 2.3341,0.5028 2.4338,-0.0567 4.8424,-0.4229 7.2521,-0.7324 1.4763,-0.1897 2.9577,-0.3824 4.3977,-0.7688 1.1869,-0.3183 2.2153,-0.97 3.3463,-1.4176 0.7285,-0.288 1.4658,-0.5794 1.9823,-1.2787 0.7194,-0.9743 1.3311,-2.0129 1.866,-3.0844 0.4879,-0.9777 1.5055,-2.628 1.5279,-3.9336 0.01,-0.5876 -0.2339,-1.2337 -0.7214,-1.5809 -0.8932,-0.6364 -1.9525,-0.6758 -2.9767,-0.9119 -1.1531,-0.2662 -2.3105,-0.4819 -3.4636,-0.7013 0.3682,0.0402 1.1369,0.049 1.1369,0.049 0.0681,-0.3744 0.3456,-0.7699 0.2044,-1.1231 -0.1131,-0.2826 -0.5635,-0.5774 -0.8169,-0.4087 -0.4431,0.2959 -0.4289,0.9802 -0.7149,1.4298 -0.004,0.0068 0,0.0127 0.0122,0.019 -0.3297,-0.0632 -0.6594,-0.1264 -0.9885,-0.1919 0.0187,-0.1126 0.0374,-0.2254 0.0573,-0.3376 0.066,-0.3751 0.2826,-0.7509 0.2041,-1.1234 -0.07,-0.3331 -0.2812,-0.739 -0.6129,-0.8169 -0.3875,-0.0913 -0.7965,0.18 -1.1228,0.4087 -0.3753,0.2625 -0.5578,0.7399 -0.9193,1.021 -0.0405,0.0315 0.5551,0.3158 1.1569,0.5908 -1.4658,-0.3217 -2.9175,-0.7124 -4.3404,-1.2867 -1.0035,-0.4047 -2.0177,-0.8144 -3.0691,-1.0601 -3.5388,-0.8289 -7.2553,-0.1466 -10.736,0.6364 -2.5647,0.5771 -4.7069,0.9714 -7.3167,0.5842 -2.4826,-0.368 -6.5963,-0.068 -8.555,-1.9639 -0.0119,-0.0116 -0.0238,-0.0235 -0.0354,-0.0357 -0.5766,-0.6939 -0.6991,-1.7952 -0.6991,-2.7079 0,-0.5729 0.6378,-0.9542 0.999,-1.3989 0.4067,-0.5003 0.733,-1.1186 1.2149,-1.5347 -0.6364,0.0896 -1.2725,0.2228 -1.8986,0.4133 -0.6166,0.1877 -1.2153,0.4813 -1.7348,0.8646 -0.1012,0.0745 -0.1985,0.1513 -0.2906,0.2304 -0.0938,0.0805 -0.1837,0.1639 -0.2693,0.2489 l 0.001,0.0014 -0.001,0.0012 c -0.3997,0.3996 -0.7135,0.8787 -0.8901,1.3989 -0.034,0.1006 -0.0632,0.2018 -0.0864,0.303 -0.0216,0.0955 -0.0392,0.1984 -0.0519,0.3075 l -6e-4,0 0,0.0012 c -0.0445,0.3764 0.003,0.7594 0.1029,1.1389 0.1083,0.4116 0.2784,0.8266 0.4612,1.2269 0.2001,0.4385 0.4244,0.8776 0.6863,1.2968 0.2463,0.3943 0.8937,1.1333 1.2192,1.4582 4.5275,4.9538 12.6167,4.0728 16.5203,3.5716 0.3285,0.3016 1.7121,0.3799 1.7121,0.3799 z" />
  <path
     id="path10"
     style="fill:#ffffff;fill-rule:evenodd"
     d="m 234.0743,86.3819 c 0,0 0,0 0,0 0,0 0,0 0,0 z" />
  <path
     id="path12"
     style="fill:#ffffff;fill-rule:evenodd"
     d="m 221.7209,87.1489 c 0.0164,0.0026 0.0456,0.0071 0.004,-6e-4" />
  <path
     id="path14"
     style="fill:#ffffff;fill-rule:evenodd"
     d="m 221.7246,87.1483 -0.002,-2e-4 0,0 0,0" />
  <path
     id="path16"
     style="fill:#ffffff;fill-rule:evenodd"
     d="m 221.7231,87.1481 -0.002,-3e-4 -3e-4,0 3e-4,0" />
  <path
     id="path18"
     style="fill:#ffffff;fill-rule:evenodd"
     d="m 221.7209,87.1478 0,3e-4" />
  <path
     id="path20"
     style="fill:#ffffff;fill-rule:evenodd"
     d="m 221.7209,87.1481 0,2e-4" />
  <path
     id="path22"
     style="fill:#ffffff;fill-rule:evenodd"
     d="m 221.7209,87.1483 0,6e-4 0,-6e-4 z" />
  <path
     id="path24"
     style="fill:#ffffff;fill-rule:evenodd"
     d="m 221.7124,87.1475 c 0,0 0,0 -3e-4,0 0,0 3e-4,0 3e-4,0 z" />
  <path
     id="path26"
     style="fill:#1b1918;fill-rule:evenodd"
     d="m 261.2466,51.933 c -0.1607,-0.2194 0.1868,-1.1109 0.3563,-1.3439 0.7175,-0.9882 1.8808,-1.4899 3.0442,-1.0256 2.978,1.188 1.58,5.3793 -0.9831,5.9241 -0.9283,0.1979 -1.8635,-0.064 -2.706,-0.4382 -0.3914,-0.1735 -1.5358,-0.6236 -1.7682,-0.9774 -0.2988,-0.455 -0.0445,-0.5995 0.4946,-0.6667 0.3005,-0.0374 1.1739,0.0057 1.8933,0.2044 0.741,0.2049 1.5786,0.5062 2.2708,0.0102 0.7742,-0.5545 1.2005,-1.959 0.1463,-2.4846 -0.3591,-0.1791 -0.8042,0.1599 -1.0015,0.4453 -0.172,0.2495 -0.3016,0.7691 -0.5995,0.826 -0.5343,0.1027 -0.8255,-0.0348 -1.1472,-0.4736 z" />
  <path
     id="path28"
     style="fill:#1b1918;fill-rule:evenodd"
     d="m 268.6946,58.0867 c 0.2912,0.5939 -0.3055,1.2872 -0.4595,1.9304 -0.005,0.0196 -0.0102,0.0388 -0.0161,0.0578 -0.3302,1.0497 -0.5686,2.626 -1.0837,3.5589 -0.1528,0.2761 -0.3226,0.7223 -0.6381,0.7282 -0.5428,0.0105 -1.1355,-0.331 -1.4232,-0.7914 -0.1588,-0.2537 0.3109,-0.5133 0.4362,-0.7855 0.2214,-0.4787 0.4241,-0.9669 0.6027,-1.4632 0.2023,-0.5621 0.3812,-1.1333 0.54,-1.7093 0.1723,-0.6284 -0.0695,-1.5123 0.4529,-1.9026 0.4357,-0.3257 1.3496,-0.1126 1.5888,0.3767 z" />
  <path
     id="path30"
     style="fill:#1b1918;fill-rule:evenodd"
     d="m 258.1665,85.8929 c -0.8031,-0.3549 -1.5616,-0.8425 -2.3871,-1.1296 -0.4209,-0.0862 -0.8421,-0.1721 -1.2645,-0.2512 -0.9643,-0.0655 -1.9576,0.0746 -2.9049,-0.1216 -0.4887,-0.1009 -0.9485,-0.4201 -1.4049,-0.7027 -0.557,-0.1284 -1.1052,-0.2704 -1.6345,-0.4311 -1.0048,0.3228 -1.1812,1.8442 -2.0174,2.5132 -0.7228,0.5779 -1.6327,0.9155 -2.5282,1.1491 -0.8929,0.2327 -1.8397,0.3135 -2.7584,0.2299 -0.7965,-0.0723 -1.5038,-0.5978 -2.2986,-0.6894 -1.2178,-0.1409 -2.4591,-0.1355 -3.6777,0 -0.8679,0.0964 -1.6806,0.4777 -2.5285,0.6894 -0.9918,0.2478 -1.9856,0.489 -2.9883,0.6897 -0.9138,0.1828 -1.8314,0.3603 -2.7578,0.4595 -1.2217,0.1309 -2.4534,0.3243 -3.6779,0.2299 -0.7974,-0.0613 -1.5486,-0.4116 -2.2984,-0.6894 -1.3209,-0.4893 -2.4993,-1.6092 -3.9075,-1.6092 -0.5837,0 -0.9613,1.093 -0.6897,1.6092 0.631,1.1993 1.9919,1.8388 2.988,2.7581 0,0 2.2989,0.9196 3.6777,1.3793 1.379,0.4598 4.3673,0.9193 4.3673,0.9193 0.843,-0.0768 1.6957,-0.0785 2.5285,-0.2296 1.7005,-0.3095 3.38,-0.7302 5.0565,-1.1494 0.7761,-0.1939 1.5315,-0.4638 2.2986,-0.6897 0.5352,-0.1573 1.0837,-0.6472 1.6092,-0.4598 0.714,0.2551 1.207,0.9658 1.6089,1.6092 0.385,0.6163 0.2946,1.4585 0.6897,2.0685 0.3861,0.5972 0.9644,1.0394 1.4976,1.5179 1.5465,-0.1448 3.0866,-0.3656 4.6267,-0.5635 1.4094,-0.1806 2.8255,-0.3648 4.2006,-0.7339 1.1189,-0.3002 2.1096,-0.9402 3.1836,-1.3652 0.5352,-0.2117 1.0763,-0.4257 1.338,-0.7798 0.6559,-0.8875 1.2231,-1.8541 1.7271,-2.8641 0.1556,-0.3115 0.6123,-1.1327 0.9607,-1.9213 -0.2092,-0.722 -0.4425,-1.357 -0.6344,-1.4417 z" />
  <path
     id="path32"
     style="fill:#ffffff;fill-rule:evenodd"
     d="m 248.6789,72.6979 c -0.2114,0.1074 -0.428,0.2103 -0.6531,0.3064 -0.7716,0.3286 -1.5485,0.6194 -2.3267,0.8773 -0.7857,0.2597 -1.58,0.4896 -2.3771,0.6923 -0.6517,0.1661 -1.3119,0.2897 -1.9754,0.3894 -0.4672,0.0701 -0.9519,0.1296 -1.4423,0.1849 0.216,0.1071 0.6108,0.3035 0.6755,0.3381 0.5235,0.2821 1.0777,0.5049 1.6339,0.7149 0.7047,0.2668 1.3921,0.6764 2.1444,0.7149 0.6352,0.0326 1.2469,-0.2772 1.838,-0.5105 0.1046,-0.0414 0.2075,-0.0859 0.3089,-0.1329 0.006,0.3098 0.0998,0.6414 0.0998,0.9499 0,0.6125 0.0369,1.2265 0,1.8379 -0.0312,0.5142 -0.407,1.0585 -0.2044,1.5319 0.1681,0.392 0.7161,0.4873 1.1234,0.6128 0.4924,0.1514 1.1033,0.4899 1.5316,0.2041 0.4059,-0.2704 0.3217,-0.9428 0.3064,-1.4295 -0.0196,-0.6273 -0.2214,-1.2393 -0.4085,-1.8383 -0.1545,-0.4949 -0.3379,-0.9898 -0.6123,-1.4295 -0.2233,-0.3571 -0.4714,-0.7401 -0.8243,-0.9657 0.2373,-0.1279 0.476,-0.2526 0.722,-0.362 0.5312,-0.2361 1.0519,-0.6126 1.6339,-0.6126 0.2659,0 0.4606,0.3515 0.5105,0.6126 0.0958,0.5026 -0.136,1.0216 -0.102,1.5318 0.0343,0.5196 0.0258,1.0933 0.3061,1.5319 0.3011,0.4702 0.8187,0.792 1.3278,1.021 0.8742,0.3935 1.8524,0.5003 2.7569,0.817 0.4598,0.161 0.9162,0.3509 1.3278,0.6128 0.3458,0.2197 0.5556,0.6267 0.9187,0.8169 0.373,0.1954 0.8059,0.2742 1.2257,0.3062 0.4496,0.0346 0.9062,-0.0096 1.3516,-0.0882 -0.1795,0.1384 -0.4006,0.3804 -0.5349,0.4967 -0.2733,0.2369 -0.3909,0.6553 -0.7147,0.8169 -0.2043,0.1021 0.919,0.5105 0.919,0.5105 0.2041,-0.6125 0.7107,-1.1996 0.6129,-1.838 -0.002,-0.0153 -0.007,-0.0286 -0.0108,-0.0399 0.3875,-0.0868 0.7674,-0.2157 1.1342,-0.3685 0.3931,-0.1642 0.8033,-0.3305 1.123,-0.6126 0.2759,-0.2438 0.5573,-0.555 0.6126,-0.919 0.1225,-0.8084 0.2231,-1.7008 -0.102,-2.4508 -0.1815,-0.4193 -0.7906,-0.4737 -1.2255,-0.6129 -0.4263,-0.1366 -0.8852,-0.136 -1.3274,-0.2041 0,0 -0.6129,0 -1.1234,0 -0.5105,0 -1.3275,-0.102 -1.3275,-0.102 -1.055,-0.1704 -2.1455,-0.1919 -3.1657,-0.5108 -0.6406,-0.2001 -1.1772,-0.6486 -1.7359,-1.0213 -0.5664,-0.3773 -1.0437,-0.8856 -1.6339,-1.2252 -0.5423,-0.3124 -1.1812,-0.4255 -1.736,-0.7149 -0.1831,-0.0955 -0.3795,-0.2542 -0.5808,-0.4399 z" />
  <path
     id="path34"
     style="fill:#ffffff;fill-rule:evenodd"
     d="m 229.3413,74.3749 c -1.2941,-0.1939 -2.5892,-0.3867 -3.9116,-0.5494 -0.3149,-0.0388 -0.7407,-0.0989 -1.1667,-0.159 -0.0598,-0.0085 -0.1196,-0.017 -0.1792,-0.0255 -0.0158,0.0025 -0.0314,0.0051 -0.0467,0.0073 -0.614,0.093 -1.313,-0.0252 -1.8383,0.3065 -0.2605,0.1647 -0.3506,0.737 -0.102,0.9192 0.4424,0.3243 1.1168,0.0205 1.6338,0.2039 0.561,0.1992 1.0032,0.6457 1.5316,0.9192 0.4606,0.2384 0.9133,0.6557 1.4301,0.6129 0.8059,-0.0672 1.4411,-0.8388 2.2462,-0.9193 0.2466,-0.0247 -0.0933,0.4932 -0.2041,0.7149 -0.1985,0.3969 -0.9845,0.7707 -0.7149,1.1234 0.4314,0.5644 1.3518,0.4444 2.0423,0.6125 0.5706,0.1389 1.1489,0.2875 1.7362,0.3065 0.4811,0.0153 1.1623,0.1964 1.4293,-0.2044 0.2571,-0.3852 -0.2132,-0.9077 -0.4085,-1.3275 -0.2503,-0.54 -0.5315,-1.0797 -0.9187,-1.5318 -0.2398,-0.2795 -0.5511,-0.6126 -0.919,-0.6126 -0.3682,0 -0.5519,0.6372 -0.9193,0.6126 -0.3132,-0.0207 -0.4342,-0.4567 -0.6128,-0.7149 -0.0559,-0.0802 -0.0805,-0.1899 -0.1077,-0.2945 z" />
  <path
     id="path36"
     style="fill:#ffffff;fill-rule:evenodd"
     d="m 234.0746,86.3819 c 0.003,-6e-4 0.0113,-0.0026 0.001,-3e-4 -3e-4,0 -0.001,3e-4 -0.001,3e-4 z" />
  <path
     id="path38"
     style="fill:#ffffff;fill-rule:evenodd"
     d="m 221.7209,87.1489 0,-6e-4 0,-2e-4 0,-3e-4 c -6e-4,-3e-4 -0.001,-3e-4 -0.003,-6e-4 l 0,6e-4 0,3e-4 0,2e-4 c 6e-4,3e-4 0.001,6e-4 0.003,6e-4 z" />
  <path
     id="path40"
     style="fill:#ffffff;fill-rule:evenodd"
     d="m 257.2251,83.2473 c 0.0992,-0.3478 0.4635,-0.7931 0.8167,-0.7146 0.301,0.0666 0.068,0.6126 0.1023,0.919 0,0 -0.9751,-0.008 -0.919,-0.2044 z" />
  <path
     id="path42"
     style="fill:#ffffff;fill-rule:evenodd"
     d="m 177.1024,51.7878 c 0.3887,-0.4149 -0.7676,-1.1814 -0.9096,-1.5159 -0.3013,-0.7104 -0.3087,-1.563 -0.6134,-2.2998 -0.2974,-0.7203 -0.7339,-1.377 -1.1597,-2.0296 -0.212,-0.3257 -1.8887,-2.8922 -2.516,-2.3045 -0.2736,0.2562 -0.1828,0.7568 -0.0936,1.1211 0.1514,0.6131 0.4919,1.1664 0.7943,1.7209 0.6233,1.1418 4.3342,5.4825 4.498,5.3078 z" />
  <path
     id="path44"
     style="fill:#1b1918;fill-rule:evenodd"
     d="m 182.647,60.3187 c -0.4289,0.9193 -0.9598,3.3327 -1.3082,4.2857 -0.5729,1.5653 0.269,3.1893 -0.3317,4.7444 -0.4444,1.1505 -0.574,1.2866 -0.9479,2.4616 -0.4918,1.5463 -0.4396,4.2307 -0.6366,5.8416 -0.1712,1.4003 -1.383,2.622 -1.1738,4.017 l 0.5516,3.6776 c 0.5516,-0.6128 1.29,-1.0992 1.6548,-1.8385 l 2.0084,-4.0657 c 0.5516,0.981 0.9258,2.0848 1.6549,2.9423 l 3.1257,3.6777 c 1.1035,-0.184 2.3925,0.0879 3.31,-0.5516 1.2572,-0.8762 1.4885,-2.8199 2.7581,-3.6777 1.1458,-0.7744 2.6935,-0.6296 4.0457,-0.9193 l 2.5741,-0.5519 c 0,0 -4.597,-4.9649 -4.7809,-5.8841 -0.1837,-0.9196 -0.1837,-6.2521 -0.1837,-6.2521 0.6741,-1.9616 0.9505,-4.1091 2.0225,-5.8845 0.7634,-1.2634 2.2113,-1.9562 3.31,-2.9421 1.2918,-1.159 2.1297,-3.3783 3.8617,-3.4939 1.1602,-0.0771 -0.6633,2.2339 -1.1033,3.31 -0.6644,1.6245 -2.1396,3.0271 -2.2067,4.7809 l -0.1837,4.7809 c 1.1647,-0.9805 2.3575,-1.9284 3.4937,-2.9421 1.1324,-1.01 1.9411,-2.4709 3.3097,-3.1257 1.5729,-0.7523 3.4486,-0.5346 5.1489,-0.9196 1.5519,-0.3515 3.0821,-0.8011 4.5972,-1.2872 1.7354,-0.5564 3.3522,-1.533 5.1488,-1.8388 1.1543,-0.1965 2.3233,0.3994 3.494,0.3679 1.118,-0.0303 2.2008,-0.4054 3.3095,-0.5516 2.141,-0.2826 4.3412,-0.2118 6.436,-0.7356 1.3833,-0.3458 2.6263,-1.1276 3.8617,-1.8391 0.7965,-0.4587 1.5001,-1.0661 2.2067,-1.6549 0.3994,-0.3328 0.7257,-0.7455 1.103,-1.1032 0.7875,-0.7456 1.5038,-1.5826 2.3905,-2.2065 0.7849,-0.5522 1.635,-1.0931 2.5747,-1.2875 0.9022,-0.1865 2.0035,-0.3442 2.7584,0.1842 l 1.8388,1.2872 c 0.6128,-0.3679 1.319,-0.6128 1.8388,-1.1035 0.6058,-0.5723 0.8331,-1.4856 1.4706,-2.0228 0.5667,-0.4771 1.2821,-0.9193 2.0231,-0.9193 l 3.6777,0 c -5.3325,-1.042 -10.6594,-2.116 -15.9979,-3.126 -1.4655,-0.2772 -3.0308,-0.176 -4.4133,-0.7356 -1.2614,-0.5105 -2.3473,-1.4281 -3.31,-2.3905 -0.902,-0.9017 -1.5874,-2.0111 -2.2065,-3.126 -0.3106,-0.5593 -0.1224,-1.3643 -0.5516,-1.8388 -0.7985,-0.8828 -1.9131,-1.425 -2.9421,-2.0229 -0.8776,-0.5093 -1.7529,-1.1531 -2.7586,-1.2869 -0.9292,-0.1239 -1.8576,0.29 -2.7579,0.5516 -1.006,0.292 -1.9618,0.7353 -2.942,1.103 0,0 -2.2071,1.2875 -3.1264,1.8391 -0.9192,0.5516 -2.0228,2.0225 -2.0228,2.0225 -0.3676,0.6132 -0.7353,1.226 -1.1032,1.8389 -0.184,0.3067 -0.2543,1.1177 -0.5516,0.9195 -0.8065,-0.5377 -1.522,-1.4303 -1.6549,-2.3904 -0.1967,-1.4173 0.2361,-2.8882 0.7353,-4.2296 0.4986,-1.3397 2.1606,-2.2484 2.2068,-3.6777 0.0303,-0.9527 -1.2099,-1.5242 -2.0228,-2.0225 -1.1254,-0.6899 -2.3604,-1.3847 -3.6777,-1.4712 -2.5194,-0.1649 -5.0757,0.1815 -7.5393,0.7356 -2.4781,0.5576 -4.8042,1.6538 -7.1717,2.5744 -2.0474,0.7966 -4.0107,1.8029 -6.0681,2.5745 -1.8692,0.701 -3.8418,1.1097 -5.7002,1.8388 -1.2759,0.5003 -2.4352,1.2609 -3.6779,1.8388 -1.3938,0.6483 -2.9024,1.0625 -4.229,1.8389 -1.2065,0.7058 -3.187,1.4281 -4.1587,2.433 -0.2798,0.2899 -0.5681,0.6207 -0.8374,0.9762 0.5902,0.2798 1.1458,0.7671 1.6115,1.1293 0.0264,0.0202 0.0558,0.0369 0.0788,0.061 0.5423,0.5652 1.122,1.3354 1.5077,2.0168 0.4085,0.7149 0.817,1.4298 1.2257,2.145 0.385,0.6738 0.3394,1.6384 0.6628,2.3848 0.3401,0.7841 0.8799,1.4658 1.3192,2.1985 0.017,0.0281 0.0369,0.0547 0.0505,0.0839 0.0116,0.0253 0.0176,0.0528 0.0264,0.0791 0.2933,0.8813 0.4566,1.8179 0.8812,2.6439 0.4618,0.8992 1.126,1.6815 1.749,2.4778 0.6242,0.7979 1.4335,1.5123 2.0172,2.3275 0.763,1.0675 1.3011,2.4265 2.0077,3.5521 0.7821,1.2461 1.6685,2.8539 3.3976,2.768 2.1521,-0.1066 4.8867,-3.3196 5.5698,-5.0865 0.4179,-1.0814 0.6509,-2.2288 0.8779,-3.3658 0.2631,-1.3167 0.5596,-2.6422 0.5905,-3.9841 0.0218,-0.9595 -0.5789,-1.9542 -0.4417,-2.8809 0.1985,-1.3408 0.5673,-2.6677 0.5962,-4.0226 0.0618,-2.9021 -2.0415,-10.1648 0.8402,-11.9594 0.4614,-0.2871 1.3756,0.1091 1.5001,0.6381 0.1683,0.7183 -0.6974,1.3178 -0.872,2.0344 -0.775,3.1825 0.6168,6.3105 0.163,9.4088 -0.1979,1.3379 -0.5624,2.6614 -0.5944,4.0133 -0.021,0.8881 0.2919,1.7526 0.4382,2.6291 0.2231,1.3448 -0.3214,3.1068 -0.614,4.4184 -0.4991,2.2425 -1.0482,4.9226 -2.6342,6.6943 -0.9227,1.0312 -3.9061,3.1697 -5.3201,3.2385 -2.2467,0.1095 -3.9078,-1.9638 -4.8982,-3.7063 -0.6509,-1.152 -1.2067,-2.3635 -1.9531,-3.456 -0.003,-0.0042 -0.006,-0.0085 -0.009,-0.013 l 0.002,0.0051 z m 45.0899,-18.9808 c 0.0345,0.1778 0.0348,0.3586 -0.009,0.5497 -0.3481,1.5185 -0.7019,1.2274 -1.7439,1.597 -1.2473,-0.2157 -1.5945,-0.318 -2.1413,-1.1322 -0.366,-0.608 0.2069,-1.7401 0.4561,-2.2835 -0.7081,0.4699 -1.5474,1.3175 -2.1943,1.8946 -0.001,0.0012 -0.1261,0.0916 -0.1276,0.0927 -0.0269,0.0196 -0.0544,0.0389 -0.0813,0.0584 l -0.5956,0.428 c 0.0938,0.0831 0.025,0.226 0.0255,0.2268 0.0145,0.0142 0.0315,0.0267 0.0431,0.0428 0.8898,1.3422 1.8349,2.1824 2.8043,2.6096 l -0.0663,-0.0113 c -0.4966,-0.0834 -1.059,-0.199 -1.5318,-0.37 -0.8819,-0.3186 -1.5282,-0.7948 -2.0895,-1.5406 -0.0238,-0.0315 0.3816,-0.6304 0.4023,-0.815 0.0116,-0.1031 -0.1684,0.1211 -0.2529,0.1817 l -2.6821,1.9279 c 0.4918,-0.9842 0.9842,-1.9681 1.4763,-2.9523 0.0723,-0.1448 0.1681,-0.2364 0.267,-0.3053 0.4686,-0.3268 0.9468,-0.6432 1.3921,-1.0009 1.3275,-1.0647 2.4128,-2.3465 4.2678,-2.3287 0.4995,0.0051 1.1447,0.0556 1.5361,0.3881 0.7841,0.6664 1.0358,1.0979 1.6107,1.8901 0.2089,0.2875 0.447,0.5571 0.7132,0.7923 0.3291,0.2909 0.6896,0.5468 1.0632,0.777 0.4542,0.2801 0.9667,0.4833 1.4449,0.7226 0.0572,0.5136 0.1145,1.0272 0.1715,1.5412 -0.4567,0.1301 -0.9684,0.3497 -1.4335,0.4093 -0.4295,0.0552 -0.881,-0.1069 -1.3286,-0.0457 -0.1287,0.0176 -0.0658,0.0029 -0.1928,0.0312 0.4703,-0.3129 0.743,-0.6525 1.1962,-1.0854 -0.7696,-0.5621 -1.8856,-1.4564 -2.4,-2.2901 z" />
</svg>
